<?xml version="1.0" standalone="no"?>
<!DOCTYPE svg PUBLIC "-//W3C//DTD SVG 1.1//EN" "http://www.w3.org/Graphics/SVG/1.1/DTD/svg11.dtd">
<svg xmlns="http://www.w3.org/2000/svg" id="Layer_2" data-name="Layer 2" viewBox="0 0 1308.27 387.5" width="1308.27001953125" height="387.5">
  <defs>
    <style>
      .cls-1 {
        fill: #072160;
      }

      .cls-1, .cls-2, .cls-3 {
        stroke-width: 0px;
      }

      .cls-2 {
        fill: #253030;
      }

      .cls-3 {
        fill: #07e07e;
      }
    </style>
  </defs>
  <g id="Layer_1-2" data-name="Layer 1">
    <g>
      <path class="cls-1" d="M175.28,326.1c3.86-1.19,6.68-3.69,9.73-5.68,34.09-22.24,70.08-40.91,107.34-57.2,5.11-2.23,10.43-3.04,15.92-2.47,5.67.58,10.68,2.56,12.95,8.33,2.36,6.02,1.82,11.99-2.67,16.76-7.05,7.5-14.5,14.62-21.83,21.85-20.71,20.42-41.45,40.83-62.74,60.65-6.63,6.17-13.98,11.48-22.3,15.24-15.74,7.13-30.34,3.97-44.32-4.97-13.14-8.4-23.97-19.41-34.86-30.37-36.21-36.44-72.44-72.85-108.63-109.31-4.9-4.94-9.64-10.04-14.31-15.19-5.08-5.61-7.93-12.35-9.25-19.75-.89-4.99-.14-6.04,4.97-6.08,14.22-.1,28.44-.08,42.66-.08,25.64.01,51.28.36,76.9,1.38,29.08,1.16,58.16,2.66,87.12,5.66,16.43,1.7,33,3.04,48.65,9.08.91.35,1.88.59,2.73,1.05,16.84,9.03,16.97,17.4,7.75,29.81-6.13,8.26-14.81,13.86-22.62,20.31-23.49,19.42-47.17,38.61-70.76,57.91-.91.75-2.05,1.35-2.43,3.06Z"/>
      <path class="cls-3" d="M175.03,62.2c10.12,8.29,20.07,16.45,30.04,24.6,18.53,15.14,37.1,30.24,55.59,45.44,5.5,4.52,10.65,9.43,13.89,15.93,4.42,8.85,2.03,16.79-6.7,21.52-10.66,5.78-22.28,8.62-34.21,10.04-40.96,4.88-82.1,7.21-123.32,8.5-35.25,1.11-70.49,1.27-105.75,1.37-3.65.01-4.58-1.35-4.22-4.76,1.01-9.56,5.28-17.39,11.98-24.13,14.82-14.91,29.55-29.91,44.34-44.86,27.3-27.61,54.54-55.27,81.94-82.78,8.34-8.37,17.05-16.38,26.92-23.03,21.01-14.16,40.62-13.43,60.24,2.54,15.25,12.41,28.7,26.75,42.91,40.27,15.62,14.86,31,29.97,46.49,44.97,2.94,2.85,5.27,6.04,6.41,10.06,2.63,9.25-2.58,17.27-12.2,18.33-5.44.6-10.82.19-16-1.96-25.33-10.53-49.71-22.96-73.57-36.44-13.69-7.73-27.08-15.97-40.33-24.43-1.21-.77-2.34-2.12-4.45-1.2Z"/>
      <g>
        <polygon class="cls-2" points="380.7 85.71 357.76 200.45 396.44 200.45 419.39 85.71 380.7 85.71"/>
        <polygon class="cls-2" points="502.82 139.09 469.87 85.71 438.07 85.71 415.13 200.45 452.83 200.45 463.47 147.08 496.43 200.45 528.23 200.45 551.17 85.71 513.47 85.71 502.82 139.09"/>
        <polygon class="cls-2" points="667.05 85.71 561.16 85.71 555.1 115.71 588.7 115.71 571.82 200.45 610.5 200.45 627.38 115.71 660.99 115.71 667.05 85.71"/>
        <polygon class="cls-2" points="654.1 200.45 749.5 200.45 755.4 171.28 697.86 171.28 700.89 156.2 749.5 156.2 755.07 128.33 706.48 128.33 709.17 114.89 764.41 114.89 770.31 85.71 677.04 85.71 654.1 200.45"/>
        <path class="cls-2" d="M846.42,170.1c-3.79,1.11-7.58,1.67-11.37,1.67-5.24,0-9.75-.92-13.52-2.79-3.77-1.85-6.67-4.48-8.69-7.87-2.03-3.38-3.04-7.32-3.04-11.8,0-5.14.76-9.83,2.3-14.1,1.53-4.26,3.74-7.95,6.64-11.06,2.89-3.11,6.36-5.52,10.4-7.21,4.05-1.69,8.58-2.54,13.6-2.54,5.47,0,10.27.9,14.43,2.7,4.15,1.81,8.08,5.11,11.8,9.92l27.7-21.47c-5.35-7.43-12.37-13.04-21.06-16.8-8.69-3.77-19.04-5.66-31.06-5.66-10.93,0-20.9,1.66-29.91,5-9.01,3.33-16.8,8.06-23.36,14.17-6.56,6.12-11.62,13.39-15.17,21.8-3.55,8.42-5.33,17.65-5.33,27.7s2.43,19.1,7.3,26.8c4.86,7.71,11.72,13.72,20.57,18.03,8.85,4.32,19.17,6.48,30.98,6.48,9.07,0,17.59-1.18,25.57-3.53,7.97-2.35,14.97-5.71,20.98-10.08l9.84-49.5h-33.61l-6,30.13Z"/>
        <path class="cls-2" d="M1005.44,148.65c4.76-7.21,7.13-15.62,7.13-25.24,0-11.91-4.15-21.17-12.46-27.78-8.3-6.61-20.05-9.92-35.24-9.92h-51.47l-22.94,114.74h38.68l5.77-28.84h9.41l16.29,28.84h40.16l-19.11-33.39c1.24-.47,2.45-.98,3.63-1.53,8.69-4.04,15.4-9.67,20.16-16.88ZM969.54,118.25c2.56,1.8,3.85,4.78,3.85,8.93,0,4.81-1.47,8.55-4.43,11.23-2.95,2.68-7.11,4.01-12.46,4.01h-15.84l5.36-26.88h12.94c4.48,0,8.01.91,10.57,2.71Z"/>
        <polygon class="cls-2" points="1012.57 200.45 1051.25 200.45 1074.2 85.71 1035.51 85.71 1012.57 200.45"/>
        <polygon class="cls-2" points="1308.27 85.71 1269.42 85.71 1237.47 125.45 1221.89 85.71 1190.08 85.71 1183.03 85.71 1084.19 85.71 1078.13 115.71 1111.73 115.71 1094.85 200.45 1133.53 200.45 1150.42 115.71 1184.02 115.71 1187.7 97.51 1211.73 158.33 1203.36 200.45 1242.04 200.45 1250.3 158.88 1308.27 85.71"/>
      </g>
      <g>
        <polygon class="cls-2" points="357.76 290.41 407.84 290.41 410.94 275.09 380.73 275.09 382.32 267.18 407.84 267.18 410.76 252.55 385.26 252.55 386.67 245.49 415.67 245.49 418.77 230.17 369.8 230.17 357.76 290.41"/>
        <polygon class="cls-2" points="468.33 258.2 451.03 230.17 434.34 230.17 422.3 290.41 442.09 290.41 447.68 262.4 464.97 290.41 481.66 290.41 493.72 230.17 473.92 230.17 468.33 258.2"/>
        <polygon class="cls-2" points="498.11 290.41 548.19 290.41 551.28 275.09 521.08 275.09 522.67 267.18 548.19 267.18 551.11 252.55 525.6 252.55 527.02 245.49 556.02 245.49 559.12 230.17 510.15 230.17 498.11 290.41"/>
        <path class="cls-2" d="M620.22,235.38c-4.37-3.47-10.53-5.21-18.5-5.21h-27.02l-12.04,60.24h20.3l3.03-15.14h4.94l8.55,15.14h21.08l-10.03-17.53c.65-.25,1.28-.51,1.9-.8,4.56-2.12,8.09-5.08,10.59-8.87,2.5-3.79,3.75-8.2,3.75-13.25,0-6.25-2.18-11.11-6.54-14.59ZM604.17,247.26c1.35.95,2.02,2.51,2.02,4.69,0,2.52-.77,4.49-2.32,5.89s-3.73,2.11-6.54,2.11h-8.32l2.81-14.11h6.79c2.35,0,4.2.47,5.55,1.42Z"/>
        <path class="cls-2" d="M661.91,250.36c1.52-1.63,3.34-2.89,5.47-3.79,2.12-.89,4.5-1.34,7.14-1.34,2.87,0,5.4.47,7.58,1.42,2.18.95,4.24,2.69,6.19,5.21l14.55-11.27c-2.82-3.9-6.5-6.84-11.06-8.82-4.56-1.98-10-2.97-16.31-2.97-5.73,0-10.97.88-15.7,2.63-4.73,1.75-8.82,4.23-12.27,7.44-3.43,3.21-6.09,7.03-7.95,11.44-1.87,4.42-2.8,9.27-2.8,14.55s1.27,10.02,3.83,14.07c2.55,4.05,6.15,7.2,10.8,9.46,4.65,2.27,10.07,3.4,16.27,3.4,4.76,0,9.24-.61,13.42-1.85,4.19-1.24,7.86-3,11.01-5.29l5.17-25.99h-17.64l-3.15,15.8c-1.99.58-3.98.89-5.97.89-2.76,0-5.12-.49-7.11-1.47-1.98-.97-3.5-2.35-4.56-4.13-1.06-1.78-1.6-3.84-1.6-6.19,0-2.7.4-5.17,1.21-7.4s1.97-4.18,3.49-5.81Z"/>
        <polygon class="cls-2" points="776.74 230.17 756.34 230.17 739.57 251.04 731.39 230.17 711 230.17 726.06 268.3 721.67 290.41 741.97 290.41 746.31 268.59 776.74 230.17"/>
      </g>
    </g>
  </g>
</svg>